<svg xmlns="http://www.w3.org/2000/svg" viewBox="0 0 32 32">
  <circle cx="16" cy="16" r="16" fill="#f7931a"/>
  <path fill="#fff" d="M21.9 13.4c.3-2.2-1.4-3.4-3.8-4.2l.8-3.1-1.9-.5-.8 3c-.5-.1-1-.2-1.5-.3l.8-3.1-1.9-.5-.8 3.1-3-.8-.5 2s1.4.3 1.4.3c.8.2.9.7.9 1.1l-.9 3.6c.1 0 .1 0 .2.1h-.2l-1.2 5c-.1.2-.3.6-.8.5 0 0-1.4-.3-1.4-.3l-.9 2.1 2.9.7-.8 3.1 1.9.5.8-3.1c.5.1 1 .3 1.5.4l-.8 3.1 1.9.5.8-3.1c3.2.6 5.6.4 6.7-2.5.8-2.3 0-3.6-1.8-4.5 1.3-.3 2.2-1.2 2.5-3zm-4.5 6.6c-.6 2.3-4.5 1.1-5.8.8l1.1-4.1c1.2.3 5.3.9 4.7 3.3zm.6-6.7c-.5 2.1-3.8 1-4.9.8l1-3.8c1.1.3 4.4.8 3.9 3z"/>
</svg>
